:SAMPLES-PER-SECOND 30
:FRAME-RANGE 1-564
:FULLY-SPECIFIED
:DEGREES
424
root  11.4192 39.0758 -102.674 -172.263 -0.357101 -174.667
RightUpLeg  -18.3732 16.9422 0.11744
RightLeg  6.66434 5.89133 -2.92336
RightFoot  0.0853228 -2.02888 20.0932
RightToes  -1.74624e-010 0 -3.6325e-017
Spine  37.3299 0.801883 6.10117
Spine1  -0.451774 5.68925 -8.62634
HEad  -8.50656 2.58363 -3.00036
LeftShoulder1  4.16494 -8.69197 -28.0984
LeftArm  21.779 -31.7332 -39.9147
LeftForeArm  -15.4862 -3.87481 -19.5006
LeftHand  -0.763925 -6.28267 7.92046
RightShoulder  19.9275 28.1759 54.7088
RightArm  -2.2332 20.6515 0.871532
RightForeArm  15.2385 -2.33454 14.5057
RightHand  1.05835 19.9544 4.30754
LeftUpLeg  -15.6109 10.7756 8.74097
LeftLeg  15.2053 2.02546 -0.298858
LeftFoot  -6.26562 -0.0657445 2.33468
LeftToes  -6.43926e-010 8.38805e-011 -3.16407e-011
425
root  11.4403 39.2822 -102.984 -173.77 0.921356 -174.75
RightUpLeg  -14.0692 14.1286 0.788198
RightLeg  3.83642 9.92824 -4.7528
RightFoot  -2.45838 -1.47331 18.5981
RightToes  -1.74624e-010 0 -3.6325e-017
Spine  34.7006 0.945485 6.05172
Spine1  -0.370652 5.43504 -8.36824
HEad  -4.90786 5.26537 -3.48201
LeftShoulder1  4.13457 -8.24869 -29.1538
LeftArm  27.1126 -26.1976 -38.41
LeftForeArm  -18.5954 -6.43789 -18.9765
LeftHand  -0.770699 -6.26283 8.00012
RightShoulder  18.799 25.6848 56.015
RightArm  1.25088 18.127 0.472402
RightForeArm  15.6386 -1.93581 14.9278
RightHand  0.962839 19.9253 3.87987
LeftUpLeg  -11.1481 10.0653 9.05611
LeftLeg  11.2668 3.63414 0.0845099
LeftFoot  -5.01409 -0.0746776 1.89787
LeftToes  -6.43926e-010 8.38805e-011 -3.16407e-011
426
root  11.4977 39.4168 -103.33 -175.345 2.28674 -175.609
RightUpLeg  -10.188 8.97265 0.136811
RightLeg  1.0715 12.023 -6.62545
RightFoot  -3.56639 -1.13394 16.2261
RightToes  -1.74624e-010 0 -3.6325e-017
Spine  32.5302 1.31433 5.25228
Spine1  -0.355527 5.07632 -7.75057
HEad  -1.79728 7.37926 -3.77366
LeftShoulder1  4.09686 -7.76234 -30.3584
LeftArm  32.2864 -21.622 -36.4725
LeftForeArm  -21.4851 -8.53718 -18.3764
LeftHand  -0.816653 -6.46765 8.31964
RightShoulder  17.4467 23.1702 56.8821
RightArm  3.57619 15.9624 -0.012835
RightForeArm  15.0782 -1.5481 15.1812
RightHand  0.953093 19.8404 3.85089
LeftUpLeg  -6.3138 9.3937 8.51728
LeftLeg  6.78051 5.33721 0.173737
LeftFoot  -3.57638 -0.0821715 1.52877
LeftToes  -6.43926e-010 8.38805e-011 -3.16407e-011
427
root  11.6178 39.4454 -103.682 -176.332 3.60822 -176.56
RightUpLeg  -7.44264 4.06256 -1.80819
RightLeg  -1.86778 12.0484 -7.75315
RightFoot  -3.53928 -1.04189 14.846
RightToes  -1.74624e-010 0 -3.6325e-017
Spine  29.7955 1.52763 4.69859
Spine1  -0.173643 4.8451 -7.80096
HEad  0.302633 8.77713 -3.94713
LeftShoulder1  4.0181 -7.45055 -30.6779
LeftArm  33.4803 -17.5045 -35.3578
LeftForeArm  -21.1458 -8.75035 -18.2916
LeftHand  -0.810863 -6.26361 8.39768
RightShoulder  16.0763 20.6536 57.8412
RightArm  5.01302 14.1138 -0.855278
RightForeArm  14.1241 -0.996515 15.301
RightHand  1.01541 19.7215 4.15754
LeftUpLeg  -2.34736 8.82578 7.83938
LeftLeg  2.65938 7.03115 -0.0125121
LeftFoot  -2.28571 -0.0922855 1.33977
LeftToes  -6.43926e-010 8.38805e-011 -3.16407e-011
428
root  11.7995 39.3882 -104.037 -177.012 4.75357 -177.111
RightUpLeg  -5.70027 1.09585 -4.25228
RightLeg  -3.91081 10.0822 -7.49101
RightFoot  -2.14142 -1.11676 13.6378
RightToes  -1.74624e-010 0 -3.6325e-017
Spine  26.9274 1.47255 5.02001
Spine1  0.0886029 4.75526 -8.48689
HEad  1.70895 9.37244 -4.42094
LeftShoulder1  3.9567 -7.02685 -31.5778
LeftArm  32.2408 -14.3207 -33.6966
LeftForeArm  -18.5934 -8.23959 -18.3723
LeftHand  -0.847562 -6.01914 8.93642
RightShoulder  14.6906 18.2819 58.5727
RightArm  6.07313 12.391 -1.73694
RightForeArm  13.2847 -0.28704 15.3081
RightHand  1.00891 19.7655 4.11939
LeftUpLeg  0.916264 8.37452 7.48257
LeftLeg  -0.755411 8.41559 -0.0474604
LeftFoot  -1.56297 -0.0682376 0.908225
LeftToes  -6.43926e-010 8.38805e-011 -3.16407e-011
429
root  12.0793 39.2919 -104.343 -177.256 5.90045 -177.3
RightUpLeg  -5.2639 -1.12223 -6.35523
RightLeg  -4.6628 7.63142 -6.53737
RightFoot  -0.662317 -1.21581 12.9092
RightToes  -1.74624e-010 0 -3.6325e-017
Spine  24.5373 1.5226 5.47438
Spine1  -0.170601 4.80069 -9.07081
HEad  2.58392 9.17224 -5.04799
LeftShoulder1  3.89076 -6.63032 -32.3985
LeftArm  32.1644 -12.0833 -32.2533
LeftForeArm  -18.3861 -7.66485 -18.6421
LeftHand  -0.889565 -5.56724 9.72313
RightShoulder  13.3949 16.2349 58.9268
RightArm  7.41599 10.4075 -2.45165
RightForeArm  11.8779 0.9705 15.1946
RightHand  0.879215 19.8585 3.51137
LeftUpLeg  1.88061 8.21624 7.57076
LeftLeg  -0.480217 9.61072 0.446954
LeftFoot  -2.529 0.0108754 0.0568171
LeftToes  -6.43926e-010 8.38805e-011 -3.16407e-011
430
root  12.4494 39.2496 -104.623 -177.738 7.40565 -177.625
RightUpLeg  -4.9626 -2.42712 -7.89379
RightLeg  -4.98124 5.06559 -6.17974
RightFoot  0.837371 -1.27337 11.9499
RightToes  -1.74624e-010 0 -3.6325e-017
Spine  22.9064 1.82431 5.60405
Spine1  -0.225005 4.99396 -9.22151
HEad  2.65225 8.30232 -5.47893
LeftShoulder1  3.84242 -6.40579 -32.7794
LeftArm  32.3751 -10.6811 -31.3134
LeftForeArm  -19.6051 -6.83119 -19.1041
LeftHand  -0.961562 -5.21919 10.8051
RightShoulder  12.4066 14.6298 59.3731
RightArm  7.89654 8.97029 -2.97609
RightForeArm  10.5252 1.41905 15.1659
RightHand  0.826667 19.796 3.28196
LeftUpLeg  3.52631 8.65988 8.04566
LeftLeg  -1.02298 10.4739 0.083107
LeftFoot  -2.61444 0.0465172 -0.403158
LeftToes  -6.43926e-010 8.38805e-011 -3.16407e-011
431
root  12.9147 39.2316 -104.895 -178.302 9.48035 -177.622
RightUpLeg  -4.85758 -3.17926 -8.48529
RightLeg  -4.9789 2.61433 -5.63398
RightFoot  1.57094 -1.22129 10.8575
RightToes  -1.74624e-010 0 -3.6325e-017
Spine  21.7576 2.12545 6.15087
Spine1  0.015511 5.35796 -9.49053
HEad  2.45285 7.38204 -6.12241
LeftShoulder1  3.78694 -6.12356 -33.3363
LeftArm  28.1574 -9.47381 -30.0309
LeftForeArm  -17.4058 -5.22262 -19.4439
LeftHand  -0.944843 -4.75144 11.0865
RightShoulder  11.9204 13.6253 60.2956
RightArm  8.00605 8.04064 -3.50012
RightForeArm  10.2304 1.28877 15.1985
RightHand  0.699834 19.6593 2.72142
LeftUpLeg  5.50362 9.0538 8.8984
LeftLeg  -1.65324 11.8811 -0.0689895
LeftFoot  -2.6993 0.117167 -1.33577
LeftToes  -6.43926e-010 8.38805e-011 -3.16407e-011
432
root  13.499 39.1516 -105.189 -178.768 11.5212 -177.508
RightUpLeg  -4.63492 -3.56478 -8.47226
RightLeg  -5.07773 -0.457426 -4.76561
RightFoot  1.18088 -1.21812 11.1438
RightToes  -1.74624e-010 0 -3.6325e-017
Spine  20.4676 2.33869 6.27028
Spine1  0.328439 5.49272 -9.41429
HEad  2.7117 7.19351 -6.94908
LeftShoulder1  3.74879 -5.94938 -33.6544
LeftArm  26.316 -8.2585 -29.0157
LeftForeArm  -16.8308 -4.2085 -19.6782
LeftHand  -0.974099 -4.57221 11.6135
RightShoulder  11.6685 12.9979 61.1639
RightArm  9.54293 7.14767 -3.65846
RightForeArm  9.86635 1.53879 15.3196
RightHand  0.553121 19.3896 2.07733
LeftUpLeg  7.1284 9.18402 9.74322
LeftLeg  -1.57467 13.6102 0.413963
LeftFoot  -3.05517 0.21252 -2.68052
LeftToes  -6.43926e-010 8.38805e-011 -3.16407e-011
433
root  14.1668 39.0523 -105.539 -179.246 13.4697 -177.638
RightUpLeg  -4.21462 -3.76781 -8.13935
RightLeg  -5.05362 -3.91111 -3.86211
RightFoot  0.130332 -1.01458 10.085
RightToes  -1.74624e-010 0 -3.6325e-017
Spine  18.8946 2.49182 6.07878
Spine1  0.756796 5.42552 -8.98054
HEad  3.61378 7.05871 -7.58112
LeftShoulder1  3.7456 -5.94765 -33.6281
LeftArm  20.64 -6.40435 -28.3413
LeftForeArm  -12.1419 -2.25683 -19.7017
LeftHand  -0.95841 -4.3783 11.6475
RightShoulder  11.3505 12.283 62.0738
RightArm  12.1938 6.05819 -3.42389
RightForeArm  9.65257 2.28839 15.3903
RightHand  0.573363 19.4394 2.16561
LeftUpLeg  8.95887 9.30051 10.4943
LeftLeg  -1.71083 15.1351 0.729763
LeftFoot  -3.20785 0.314195 -4.14794
LeftToes  -6.43926e-010 8.38805e-011 -3.16407e-011
434
root  14.902 39.0052 -105.946 -179.77 15.0795 -177.564
RightUpLeg  -3.17236 -3.24279 -7.13913
RightLeg  -5.01363 -5.96211 -3.71224
RightFoot  0.894676 -1.0426 9.76169
RightToes  -1.74624e-010 0 -3.6325e-017
Spine  17.5006 2.40121 6.49431
Spine1  1.09714 5.16815 -8.31416
HEad  4.85238 6.50275 -7.63923
LeftShoulder1  3.71695 -5.82713 -33.8305
LeftArm  22.2098 -4.89529 -27.3857
LeftForeArm  -12.6495 -2.89472 -19.6393
LeftHand  -0.98955 -4.37707 12.0158
RightShoulder  10.6601 10.9976 63.2906
RightArm  16.7055 4.64786 -3.28627
RightForeArm  7.61209 4.53051 15.2066
RightHand  0.604454 19.4613 2.30704
LeftUpLeg  11.4797 9.53218 11.6625
LeftLeg  -2.97413 16.1776 0.618224
LeftFoot  -2.79596 0.432427 -5.56166
LeftToes  -6.43926e-010 8.38805e-011 -3.16407e-011
